<mxfile host="app.diagrams.net" modified="2024-05-13T11:37:06.662Z" agent="Mozilla/5.0 (Windows NT 10.0; Win64; x64) AppleWebKit/537.36 (KHTML, like Gecko) Chrome/109.0.0.0 Safari/537.36" etag="ktQidifPiJmKdXpP0RyP" version="24.0.7" type="device">
  <diagram name="Страница — 1" id="VSDHt8OGjRgIlDGnQKTf">
    <mxGraphModel dx="1956" dy="1004" grid="1" gridSize="10" guides="1" tooltips="1" connect="1" arrows="1" fold="1" page="1" pageScale="1" pageWidth="827" pageHeight="1169" math="0" shadow="0">
      <root>
        <mxCell id="0" />
        <mxCell id="1" parent="0" />
        <mxCell id="mSEQv3LHEPCHIZvcyB8A-1" value="Start" style="rounded=1;whiteSpace=wrap;html=1;" parent="1" vertex="1">
          <mxGeometry x="340" y="83" width="120" height="60" as="geometry" />
        </mxCell>
        <mxCell id="qYWHBmt2x47QKJhs8bKB-2" value="" style="endArrow=classic;html=1;rounded=0;exitX=0.5;exitY=1;exitDx=0;exitDy=0;" parent="1" source="mSEQv3LHEPCHIZvcyB8A-1" edge="1" target="qYWHBmt2x47QKJhs8bKB-3">
          <mxGeometry width="50" height="50" relative="1" as="geometry">
            <mxPoint x="390" y="363" as="sourcePoint" />
            <mxPoint x="400" y="213" as="targetPoint" />
          </mxGeometry>
        </mxCell>
        <mxCell id="qYWHBmt2x47QKJhs8bKB-3" value="&lt;div&gt;&lt;span style=&quot;background-color: initial;&quot;&gt;isxArrayStrings&lt;/span&gt;&lt;span style=&quot;background-color: initial;&quot;&gt;&amp;nbsp;= [&lt;/span&gt;&lt;span style=&quot;background-color: rgb(255, 255, 255); color: rgb(44, 45, 48); font-family: Onest, Roboto, &amp;quot;San Francisco&amp;quot;, &amp;quot;Helvetica Neue&amp;quot;, Helvetica, Arial; font-size: 15px; text-align: start;&quot;&gt;“Hello”, “2”, “world”, “:-)”&lt;/span&gt;&lt;span style=&quot;background-color: initial;&quot;&gt;]&lt;/span&gt;&lt;/div&gt;&lt;div&gt;&lt;span style=&quot;background-color: initial;&quot;&gt;countI&lt;/span&gt;&lt;span style=&quot;background-color: initial;&quot;&gt;sxArray =&amp;nbsp;&lt;/span&gt;&lt;span style=&quot;background-color: initial;&quot;&gt;isxArrayStrings.&lt;/span&gt;&lt;span style=&quot;background-color: initial;&quot;&gt;Length&lt;/span&gt;&lt;/div&gt;&lt;div&gt;&lt;span style=&quot;background-color: initial;&quot;&gt;countRes&lt;/span&gt;&lt;span style=&quot;background-color: initial;&quot;&gt;Array&lt;/span&gt;&amp;nbsp;= 0&lt;/div&gt;&lt;div&gt;&lt;span style=&quot;background-color: initial;&quot;&gt;index = 0&lt;/span&gt;&lt;br&gt;&lt;/div&gt;" style="rounded=0;whiteSpace=wrap;html=1;" parent="1" vertex="1">
          <mxGeometry x="232.5" y="210" width="335" height="90" as="geometry" />
        </mxCell>
        <mxCell id="qYWHBmt2x47QKJhs8bKB-5" value="" style="endArrow=classic;html=1;rounded=0;exitX=0.5;exitY=1;exitDx=0;exitDy=0;" parent="1" source="qYWHBmt2x47QKJhs8bKB-3" edge="1">
          <mxGeometry width="50" height="50" relative="1" as="geometry">
            <mxPoint x="399.5" y="323" as="sourcePoint" />
            <mxPoint x="400" y="353" as="targetPoint" />
          </mxGeometry>
        </mxCell>
        <mxCell id="qYWHBmt2x47QKJhs8bKB-6" value="isxArrayStrings&lt;div&gt;resArrayStrings&lt;br&gt;&lt;/div&gt;" style="shape=document;whiteSpace=wrap;html=1;boundedLbl=1;" parent="1" vertex="1">
          <mxGeometry x="1320" y="655" width="120" height="80" as="geometry" />
        </mxCell>
        <mxCell id="qYWHBmt2x47QKJhs8bKB-7" value="" style="endArrow=classic;html=1;rounded=0;exitX=0.5;exitY=1;exitDx=0;exitDy=0;" parent="1" edge="1">
          <mxGeometry width="50" height="50" relative="1" as="geometry">
            <mxPoint x="1379.5" y="725" as="sourcePoint" />
            <mxPoint x="1379.5" y="795" as="targetPoint" />
          </mxGeometry>
        </mxCell>
        <mxCell id="qYWHBmt2x47QKJhs8bKB-8" value="Finish" style="rounded=1;whiteSpace=wrap;html=1;" parent="1" vertex="1">
          <mxGeometry x="1320" y="795" width="120" height="60" as="geometry" />
        </mxCell>
        <mxCell id="SwOc32K2zE0kG7Ot4sLD-4" value="countResArray++" style="rounded=0;whiteSpace=wrap;html=1;" parent="1" vertex="1">
          <mxGeometry x="305" y="760" width="190" height="60" as="geometry" />
        </mxCell>
        <mxCell id="SwOc32K2zE0kG7Ot4sLD-6" value="index&amp;nbsp;= index + 1" style="rounded=0;whiteSpace=wrap;html=1;" parent="1" vertex="1">
          <mxGeometry x="305" y="900" width="190" height="60" as="geometry" />
        </mxCell>
        <mxCell id="SwOc32K2zE0kG7Ot4sLD-7" value="" style="endArrow=classic;html=1;rounded=0;entryX=0;entryY=0.5;entryDx=0;entryDy=0;exitX=0;exitY=0.5;exitDx=0;exitDy=0;" parent="1" source="SwOc32K2zE0kG7Ot4sLD-6" target="zUDFg7TmuAQSynW0f78q-16" edge="1">
          <mxGeometry width="50" height="50" relative="1" as="geometry">
            <mxPoint x="20" y="458" as="sourcePoint" />
            <mxPoint x="345" y="-77" as="targetPoint" />
            <Array as="points">
              <mxPoint x="160" y="930" />
              <mxPoint x="160" y="408" />
            </Array>
          </mxGeometry>
        </mxCell>
        <mxCell id="zUDFg7TmuAQSynW0f78q-15" value="" style="endArrow=classic;html=1;rounded=0;" parent="1" edge="1">
          <mxGeometry width="50" height="50" relative="1" as="geometry">
            <mxPoint x="399.41" y="820" as="sourcePoint" />
            <mxPoint x="399" y="900" as="targetPoint" />
          </mxGeometry>
        </mxCell>
        <mxCell id="zUDFg7TmuAQSynW0f78q-16" value="index &amp;lt;&amp;nbsp;&lt;span style=&quot;background-color: initial;&quot;&gt;countI&lt;/span&gt;&lt;span style=&quot;background-color: initial;&quot;&gt;sxArray&lt;/span&gt;" style="rhombus;whiteSpace=wrap;html=1;" parent="1" vertex="1">
          <mxGeometry x="320" y="353" width="160" height="110" as="geometry" />
        </mxCell>
        <mxCell id="zUDFg7TmuAQSynW0f78q-17" value="" style="endArrow=classic;html=1;rounded=0;exitX=0.5;exitY=1;exitDx=0;exitDy=0;" parent="1" edge="1">
          <mxGeometry width="50" height="50" relative="1" as="geometry">
            <mxPoint x="400" y="463" as="sourcePoint" />
            <mxPoint x="400" y="553" as="targetPoint" />
            <Array as="points">
              <mxPoint x="400" y="513" />
            </Array>
          </mxGeometry>
        </mxCell>
        <mxCell id="zUDFg7TmuAQSynW0f78q-18" value="Yes" style="edgeLabel;html=1;align=center;verticalAlign=middle;resizable=0;points=[];" parent="zUDFg7TmuAQSynW0f78q-17" vertex="1" connectable="0">
          <mxGeometry x="0.0286" y="3" relative="1" as="geometry">
            <mxPoint as="offset" />
          </mxGeometry>
        </mxCell>
        <mxCell id="zUDFg7TmuAQSynW0f78q-19" value="" style="endArrow=classic;html=1;rounded=0;exitX=1;exitY=0.5;exitDx=0;exitDy=0;" parent="1" source="zUDFg7TmuAQSynW0f78q-16" edge="1">
          <mxGeometry width="50" height="50" relative="1" as="geometry">
            <mxPoint x="495" y="403" as="sourcePoint" />
            <mxPoint x="800" y="408" as="targetPoint" />
            <Array as="points">
              <mxPoint x="660" y="408" />
            </Array>
          </mxGeometry>
        </mxCell>
        <mxCell id="zUDFg7TmuAQSynW0f78q-20" value="No" style="edgeLabel;html=1;align=center;verticalAlign=middle;resizable=0;points=[];" parent="zUDFg7TmuAQSynW0f78q-19" vertex="1" connectable="0">
          <mxGeometry x="-0.5617" y="-2" relative="1" as="geometry">
            <mxPoint as="offset" />
          </mxGeometry>
        </mxCell>
        <mxCell id="J-qEZB4TPl201MEmnYsQ-1" value="resArrayStrings = new string[countResArray]&lt;div&gt;indexResArray = 0&lt;br&gt;&lt;/div&gt;" style="rounded=0;whiteSpace=wrap;html=1;" parent="1" vertex="1">
          <mxGeometry x="800" y="378" width="290" height="60" as="geometry" />
        </mxCell>
        <mxCell id="GcKc3i2NkqQ8Lv2Ww0MT-1" value="isxArrayStrings[index].Length &amp;lt;= 3" style="rhombus;whiteSpace=wrap;html=1;" vertex="1" parent="1">
          <mxGeometry x="265" y="550" width="270" height="120" as="geometry" />
        </mxCell>
        <mxCell id="GcKc3i2NkqQ8Lv2Ww0MT-2" value="" style="endArrow=classic;html=1;rounded=0;exitX=0.5;exitY=1;exitDx=0;exitDy=0;" edge="1" parent="1">
          <mxGeometry width="50" height="50" relative="1" as="geometry">
            <mxPoint x="399.41" y="670" as="sourcePoint" />
            <mxPoint x="399.41" y="760" as="targetPoint" />
            <Array as="points">
              <mxPoint x="399.41" y="720" />
            </Array>
          </mxGeometry>
        </mxCell>
        <mxCell id="GcKc3i2NkqQ8Lv2Ww0MT-3" value="Yes" style="edgeLabel;html=1;align=center;verticalAlign=middle;resizable=0;points=[];" vertex="1" connectable="0" parent="GcKc3i2NkqQ8Lv2Ww0MT-2">
          <mxGeometry x="0.0286" y="3" relative="1" as="geometry">
            <mxPoint as="offset" />
          </mxGeometry>
        </mxCell>
        <mxCell id="GcKc3i2NkqQ8Lv2Ww0MT-4" value="" style="endArrow=classic;html=1;rounded=0;exitX=1;exitY=0.5;exitDx=0;exitDy=0;entryX=1;entryY=0.5;entryDx=0;entryDy=0;" edge="1" parent="1" target="SwOc32K2zE0kG7Ot4sLD-6">
          <mxGeometry width="50" height="50" relative="1" as="geometry">
            <mxPoint x="535" y="610" as="sourcePoint" />
            <mxPoint x="715" y="685" as="targetPoint" />
            <Array as="points">
              <mxPoint x="610" y="610" />
              <mxPoint x="610" y="930" />
            </Array>
          </mxGeometry>
        </mxCell>
        <mxCell id="GcKc3i2NkqQ8Lv2Ww0MT-5" value="No" style="edgeLabel;html=1;align=center;verticalAlign=middle;resizable=0;points=[];" vertex="1" connectable="0" parent="GcKc3i2NkqQ8Lv2Ww0MT-4">
          <mxGeometry x="-0.5617" y="-2" relative="1" as="geometry">
            <mxPoint as="offset" />
          </mxGeometry>
        </mxCell>
        <mxCell id="GcKc3i2NkqQ8Lv2Ww0MT-6" value="" style="endArrow=classic;html=1;rounded=0;exitX=0.5;exitY=1;exitDx=0;exitDy=0;" edge="1" parent="1">
          <mxGeometry width="50" height="50" relative="1" as="geometry">
            <mxPoint x="944.29" y="438" as="sourcePoint" />
            <mxPoint x="944.29" y="491" as="targetPoint" />
          </mxGeometry>
        </mxCell>
        <mxCell id="GcKc3i2NkqQ8Lv2Ww0MT-7" value="&lt;div&gt;resArrayStrings[indexResArray] = isxArrayStrings[index]&lt;br&gt;&lt;/div&gt;indexResArray++" style="rounded=0;whiteSpace=wrap;html=1;" vertex="1" parent="1">
          <mxGeometry x="769.5" y="897.5" width="351" height="60" as="geometry" />
        </mxCell>
        <mxCell id="GcKc3i2NkqQ8Lv2Ww0MT-8" value="index&amp;nbsp;= index + 1" style="rounded=0;whiteSpace=wrap;html=1;" vertex="1" parent="1">
          <mxGeometry x="849" y="1037.5" width="190" height="60" as="geometry" />
        </mxCell>
        <mxCell id="GcKc3i2NkqQ8Lv2Ww0MT-9" value="" style="endArrow=classic;html=1;rounded=0;entryX=0;entryY=0.5;entryDx=0;entryDy=0;exitX=0;exitY=0.5;exitDx=0;exitDy=0;" edge="1" parent="1" source="GcKc3i2NkqQ8Lv2Ww0MT-8" target="GcKc3i2NkqQ8Lv2Ww0MT-11">
          <mxGeometry width="50" height="50" relative="1" as="geometry">
            <mxPoint x="564" y="595.5" as="sourcePoint" />
            <mxPoint x="889" y="60.5" as="targetPoint" />
            <Array as="points">
              <mxPoint x="704" y="1067.5" />
              <mxPoint x="704" y="545.5" />
            </Array>
          </mxGeometry>
        </mxCell>
        <mxCell id="GcKc3i2NkqQ8Lv2Ww0MT-10" value="" style="endArrow=classic;html=1;rounded=0;" edge="1" parent="1">
          <mxGeometry width="50" height="50" relative="1" as="geometry">
            <mxPoint x="943.4100000000001" y="957.5" as="sourcePoint" />
            <mxPoint x="943" y="1037.5" as="targetPoint" />
          </mxGeometry>
        </mxCell>
        <mxCell id="GcKc3i2NkqQ8Lv2Ww0MT-11" value="index &amp;lt;&amp;nbsp;&lt;span style=&quot;background-color: initial;&quot;&gt;countI&lt;/span&gt;&lt;span style=&quot;background-color: initial;&quot;&gt;sxArray&lt;/span&gt;" style="rhombus;whiteSpace=wrap;html=1;" vertex="1" parent="1">
          <mxGeometry x="864" y="490.5" width="160" height="110" as="geometry" />
        </mxCell>
        <mxCell id="GcKc3i2NkqQ8Lv2Ww0MT-12" value="" style="endArrow=classic;html=1;rounded=0;exitX=0.5;exitY=1;exitDx=0;exitDy=0;" edge="1" parent="1">
          <mxGeometry width="50" height="50" relative="1" as="geometry">
            <mxPoint x="944" y="600.5" as="sourcePoint" />
            <mxPoint x="944" y="690.5" as="targetPoint" />
            <Array as="points">
              <mxPoint x="944" y="650.5" />
            </Array>
          </mxGeometry>
        </mxCell>
        <mxCell id="GcKc3i2NkqQ8Lv2Ww0MT-13" value="Yes" style="edgeLabel;html=1;align=center;verticalAlign=middle;resizable=0;points=[];" vertex="1" connectable="0" parent="GcKc3i2NkqQ8Lv2Ww0MT-12">
          <mxGeometry x="0.0286" y="3" relative="1" as="geometry">
            <mxPoint as="offset" />
          </mxGeometry>
        </mxCell>
        <mxCell id="GcKc3i2NkqQ8Lv2Ww0MT-15" value="isxArrayStrings[index].Length &amp;lt;= 3" style="rhombus;whiteSpace=wrap;html=1;" vertex="1" parent="1">
          <mxGeometry x="809" y="687.5" width="270" height="120" as="geometry" />
        </mxCell>
        <mxCell id="GcKc3i2NkqQ8Lv2Ww0MT-16" value="" style="endArrow=classic;html=1;rounded=0;exitX=0.5;exitY=1;exitDx=0;exitDy=0;" edge="1" parent="1">
          <mxGeometry width="50" height="50" relative="1" as="geometry">
            <mxPoint x="943.4100000000001" y="807.5" as="sourcePoint" />
            <mxPoint x="943.4100000000001" y="897.5" as="targetPoint" />
            <Array as="points">
              <mxPoint x="943.4100000000001" y="857.5" />
            </Array>
          </mxGeometry>
        </mxCell>
        <mxCell id="GcKc3i2NkqQ8Lv2Ww0MT-17" value="Yes" style="edgeLabel;html=1;align=center;verticalAlign=middle;resizable=0;points=[];" vertex="1" connectable="0" parent="GcKc3i2NkqQ8Lv2Ww0MT-16">
          <mxGeometry x="0.0286" y="3" relative="1" as="geometry">
            <mxPoint as="offset" />
          </mxGeometry>
        </mxCell>
        <mxCell id="GcKc3i2NkqQ8Lv2Ww0MT-18" value="" style="endArrow=classic;html=1;rounded=0;exitX=1;exitY=0.5;exitDx=0;exitDy=0;entryX=1;entryY=0.5;entryDx=0;entryDy=0;" edge="1" parent="1" target="GcKc3i2NkqQ8Lv2Ww0MT-8">
          <mxGeometry width="50" height="50" relative="1" as="geometry">
            <mxPoint x="1079" y="747.5" as="sourcePoint" />
            <mxPoint x="1259" y="822.5" as="targetPoint" />
            <Array as="points">
              <mxPoint x="1154" y="747.5" />
              <mxPoint x="1154" y="1067.5" />
            </Array>
          </mxGeometry>
        </mxCell>
        <mxCell id="GcKc3i2NkqQ8Lv2Ww0MT-19" value="No" style="edgeLabel;html=1;align=center;verticalAlign=middle;resizable=0;points=[];" vertex="1" connectable="0" parent="GcKc3i2NkqQ8Lv2Ww0MT-18">
          <mxGeometry x="-0.5617" y="-2" relative="1" as="geometry">
            <mxPoint as="offset" />
          </mxGeometry>
        </mxCell>
        <mxCell id="GcKc3i2NkqQ8Lv2Ww0MT-20" value="" style="endArrow=classic;html=1;rounded=0;exitX=1;exitY=0.5;exitDx=0;exitDy=0;entryX=0.5;entryY=0;entryDx=0;entryDy=0;" edge="1" parent="1" target="qYWHBmt2x47QKJhs8bKB-6">
          <mxGeometry width="50" height="50" relative="1" as="geometry">
            <mxPoint x="1024" y="544.88" as="sourcePoint" />
            <mxPoint x="1344" y="544.88" as="targetPoint" />
            <Array as="points">
              <mxPoint x="1380" y="545" />
            </Array>
          </mxGeometry>
        </mxCell>
        <mxCell id="GcKc3i2NkqQ8Lv2Ww0MT-21" value="No" style="edgeLabel;html=1;align=center;verticalAlign=middle;resizable=0;points=[];" vertex="1" connectable="0" parent="GcKc3i2NkqQ8Lv2Ww0MT-20">
          <mxGeometry x="-0.5617" y="-2" relative="1" as="geometry">
            <mxPoint as="offset" />
          </mxGeometry>
        </mxCell>
      </root>
    </mxGraphModel>
  </diagram>
</mxfile>
